<?xml version="1.0" encoding="UTF-8" standalone="no"?>
<!-- Created with Inkscape (http://www.inkscape.org/) -->
<svg
   xmlns:svg="http://www.w3.org/2000/svg"
   xmlns="http://www.w3.org/2000/svg"
   version="1.0"
   width="600"
   height="600"
   id="svg4362">
  <defs
     id="defs4364">
	
	
	
	
</defs>
  <g
     transform="translate(222.85714,-503.79077)"
     id="layer1">
    <g
       transform="matrix(0.9983361,0,0,0.9983377,-222.35797,504.28994)"
       id="g1600"
       style="fill:#ffffff;fill-opacity:1;stroke:#000000;stroke-width:0.99999923;stroke-miterlimit:4;stroke-dasharray:none;stroke-opacity:1">
		<path
   d="M 80.75293,0 C 115.42871,10.583496 152.23779,16.276856 190.37695,16.276856 C 228.51563,16.276856 265.32422,10.583496 300,0.0004883 C 334.67578,10.583496 371.48438,16.276856 409.62305,16.276856 C 447.76172,16.276856 484.57129,10.583496 519.24707,0 C 569.8125,63.908203 600,144.67822 600,232.5 C 600,413.92383 471.16992,565.25391 300,599.99902 C 128.83008,565.25391 0,413.92383 0,232.5 C 0,144.67822 30.187988,63.907715 80.75293,0 z"
   id="path1602"
   style="fill:#ffffff;fill-opacity:1;stroke:#000000;stroke-width:0.99999923;stroke-miterlimit:4;stroke-dasharray:none;stroke-opacity:1" />

		
			<path
   d="M 80.75293,-6.4781513e-14 C 115.42871,10.583496 152.23779,16.276856 190.37695,16.276856 C 228.51563,16.276856 265.32422,10.583496 300,0.0004883 C 318.32992,5.5947595 337.25581,9.8227297 356.6591,12.565684 C 373.96214,15.011736 391.64482,16.276856 409.62305,16.276856 C 447.76172,16.276856 484.57129,10.583496 519.24707,-6.4781513e-14 C 569.8125,63.908203 600,144.67822 600,232.5 C 600,413.92383 471.16992,565.25391 300,599.99902 C 128.83008,565.25391 -4.3368087e-19,413.92383 -4.3368087e-19,232.5 C -4.3368087e-19,144.67822 30.187988,63.907715 80.75293,-6.4781513e-14 z"
   id="path1604"
   style="fill:#ffffff;fill-opacity:1;stroke:#000000;stroke-width:0.99999923;stroke-linecap:round;stroke-linejoin:round;stroke-miterlimit:4;stroke-dasharray:none;stroke-opacity:1" />

	</g>
    <g
       transform="matrix(1.0070935,0,0,1.0102847,-224.98517,500.1224)"
       id="g1606"
       style="fill:#4a7aa1;fill-opacity:1;stroke:none;stroke-opacity:1">
		<path
   d="M 15,232.5 C 15,200.521 19.169434,169.51611 26.994629,139.99902 L 573.00586,139.99902 C 580.83008,169.51611 585,200.521 585,232.5 C 585,405.60547 462.82617,550.17188 300,584.67676 C 137.17432,550.17188 15,405.60547 15,232.5 z"
   id="path1608"
   style="fill:#4a7aa1;fill-opacity:1;stroke:none;stroke-opacity:1" />

	</g>
    <g
       transform="matrix(1.0125461,0,0,1.0271486,-226.62094,500.6895)"
       id="g1610"
       style="fill:#278720;fill-opacity:1;stroke:none;stroke-opacity:1">
		<path
   d="M 31.324219,124.99902 C 43.579102,85.77832 62.362793,49.44043 86.402832,17.259766 C 119.50439,26.392578 154.37061,31.272461 190.37695,31.272461 C 228.4375,31.272461 265.22461,25.820801 300,15.654785 C 334.77539,25.820801 371.5625,31.272461 409.62305,31.272461 C 445.62891,31.272461 480.49609,26.392578 513.59766,17.259766 C 537.63672,49.44043 556.4209,85.77832 568.67578,124.99902 L 31.324219,124.99902 L 31.324219,124.99902 z"
   id="path1612"
   style="fill:#278720;fill-opacity:1;stroke:none;stroke-opacity:1" />

	</g>
    <path
       d="M 9.5309976,611.3579 L -6.68438,611.3579 L -16.43799,576.57839 L -25.840184,611.3579 L -42.055562,611.3579 L -61.440863,553.89766 L -45.931904,553.89766 L -34.417624,587.03483 L -25.252098,553.89766 L -7.2724653,553.89766 L 1.7747257,587.2715 L 12.819255,553.89766 L 28.916298,553.89766 L 9.5309976,611.3579 z M 102.93616,611.3579 L 86.720781,611.3579 L 76.967171,576.57839 L 67.564977,611.3579 L 51.349599,611.3579 L 31.964299,553.89766 L 47.473257,553.89766 L 58.987537,587.03483 L 68.153062,553.89766 L 86.132696,553.89766 L 95.179887,587.2715 L 106.22442,553.89766 L 122.32146,553.89766 L 102.93616,611.3579 z M 196.34132,611.3579 L 180.12594,611.3579 L 170.37234,576.57839 L 160.97014,611.3579 L 144.75476,611.3579 L 125.36946,553.89766 L 140.87842,553.89766 L 152.3927,587.03483 L 161.55822,553.89766 L 179.53786,553.89766 L 188.58505,587.2715 L 199.62958,553.89766 L 215.72662,553.89766 L 196.34132,611.3579 z"
       id="text4647"
       style="font-size:130.19767761px;font-style:normal;font-variant:normal;font-weight:normal;font-stretch:normal;text-align:center;text-anchor:middle;fill:#ffffff;fill-opacity:1;stroke:none;stroke-width:1px;stroke-linecap:butt;stroke-linejoin:miter;stroke-opacity:1;font-family:Roadgeek 2005 Series F;-inkscape-font-specification:Roadgeek 2005 Series F" />
    <path
       d="M -14.76337,709.50952 C -24.21435,709.50952 -32.35591,715.15294 -37.04462,724.25952 L -68.48212,785.32202 C -72.75733,793.62549 -76.44063,795.60669 -82.35712,798.79077 C -92.58562,804.29544 -103.07587,810.39627 -103.07587,824.97827 L -103.07587,904.25952 C -103.07587,915.72628 -93.85514,924.94702 -82.38837,924.94702 L -74.85712,924.94702 L -74.85712,951.57202 C -74.85713,957.14652 -70.36913,961.63452 -64.79462,961.63452 L -34.35712,961.63452 C -28.78261,961.63451 -24.29462,957.14653 -24.29462,951.57202 L -24.29462,924.94702 L 77.14288,924.94702 L 178.58038,924.94702 L 178.58038,951.57202 C 178.58038,957.14653 183.06837,961.63451 188.64288,961.63452 L 219.08038,961.63452 C 224.65489,961.63452 229.14289,957.14652 229.14288,951.57202 L 229.14288,924.94702 L 236.67413,924.94702 C 248.1409,924.94702 257.36163,915.72628 257.36163,904.25952 L 257.36163,824.97827 C 257.36163,810.39627 246.87138,804.29544 236.64288,798.79077 C 230.7264,795.60669 227.04309,793.62549 222.76788,785.32202 L 191.33038,724.25952 C 186.64167,715.15294 178.50011,709.50952 169.04913,709.50952 L 77.14288,709.50952 L -14.76337,709.50952 z M -57.70087,831.60327 C -41.04085,831.60327 -27.51337,845.13076 -27.51337,861.79077 C -27.51337,878.45079 -41.04085,891.97827 -57.70087,891.97827 C -74.36089,891.97827 -87.88837,878.4508 -87.88837,861.79077 C -87.88837,845.13075 -74.36089,831.60328 -57.70087,831.60327 z M 211.98663,831.60327 C 228.64664,831.60328 242.17413,845.13075 242.17413,861.79077 C 242.17414,878.4508 228.64665,891.97827 211.98663,891.97827 C 195.3266,891.97827 181.79913,878.45079 181.79913,861.79077 C 181.79911,845.13076 195.32661,831.60327 211.98663,831.60327 z M -11.16962,840.13452 L 164.67413,840.13452 L 164.67413,853.66577 L -11.16962,853.66577 L -11.16962,840.13452 z M -11.16962,867.22827 L 164.67413,867.22827 L 164.67413,879.94702 L -11.16962,879.94702 L -11.16962,867.22827 z M -8.76337,731.00952 C -12.20101,731.00952 -23.65396,733.72351 -27.88837,742.75952 L -53.73212,797.91577 L 208.42413,797.91577 L 182.58038,742.75952 C 178.34597,733.72351 166.89302,731.00952 163.45538,731.00952 L -8.76337,731.00952 z"
       id="path5248"
       style="opacity:1;fill:#ffffff;fill-opacity:1;fill-rule:evenodd;stroke:none" />
  </g>
</svg>
